<svg xmlns="http://www.w3.org/2000/svg" width="600" height="390.17" viewBox="0 0 600 390.17"><path d="M275.27,326.32c-17.58.05-35.15.46-52.69,2.35-6.61.71-13.08,2.28-19.71,2.91-13.24,1.26-26.25,3.61-39.53,4.7-10.7.88-21.45,1.39-32.12,2.5a116.65,116.65,0,0,1-31-.92c-7.35-1.27-14.73-2-22-4A92.25,92.25,0,0,0,53,330c-12,.08-23.7.09-35.2,4.13-4,1.42-9,3.75-12,6.72-7,6.81-8,23.8-1,30.87,11.79,11.88,37,16.55,53.49,16.77,18.11.24,35.71-1.06,53.85-1.83,16.86-.71,33.67-1.72,50.55-1.69,34.49.08,69,0,103.4-2.23,32.33-2.09,64.76-1.37,97.17-1.37,33.23,0,66.24.25,99.24,4.53,14.37,1.86,29,2.51,43.47,3.82,12.94,1.17,25.37,0,38.26-1.11a93.53,93.53,0,0,0,31.41-8.15c7.78-3.6,21.66-14.79,24-23.39,6.69-24.1-94.3-23.52-109.8-23.47-17.35.06-34.83.61-52.16,0a126.9,126.9,0,0,1-21.59-3.16c-7.09-1.5-14.23-1.12-21.42-1.75-30-2.64-60-2.26-90.08-2.26C294.85,326.37,285.06,326.29,275.27,326.32Z" transform="translate(0)" style="fill:#dcdce1"/><path d="M161.82,69.94l3.66-2.47,4.19,1.87,2.09,3.9-1.48,3-3.75,1.65,1.3.51-.36,1.06-5.82,1.91c-1.18-1.53-5.55-3.09-6.18-3.91l4.06-2.78Z" transform="translate(0)" style="fill:#aa6755"/><polygon points="84.41 213.1 43.81 198.17 52.17 269.3 47.33 330.67 47.2 331.08 47.29 331.09 47.28 331.23 55.29 331.99 55.29 331.98 55.59 332.01 73.48 277.34 82.94 219.1 82.94 219.1 84.41 213.1" style="fill:#1a3151"/><polygon points="54.88 334.79 46.57 334.58 44.45 341.58 44.66 341.65 44.6 341.65 58.34 349.79 64.87 350.52 65.7 343.05 63.93 341.76 54.88 334.79" style="fill:#162a42"/><polygon points="112.07 214.32 99.88 336.12 91.85 336.48 83.77 270.72 69.77 205.22 112.07 214.32" style="fill:#1a3151"/><polygon points="99.86 338.94 110.51 344.98 109.51 350 90.49 347.14 91.61 339.9 99.86 338.94" style="fill:#162a42"/><path d="M131.11,244.91c2.57-1.78,2.62-4.89,2.62-8a77.81,77.81,0,0,0-2.4-17.49c-2.55-10.65-5.44-23.48-6.71-37.28-3.29-35.67-14.55-59.6-14.55-59.6l-3.64-9.7c-.72-1.26-1.47-2.5-2.25-3.73C99.64,102,91.76,89.88,83.33,87.9l-.53-.12c-8.87-2-20.22-1-28.23,3.27a27.4,27.4,0,0,0-4.21,3c-3.92,3.16-7.12,4.87-8.8,9.69-1.47,4.18-1.81,8.74-2.62,13.07-1.64,8.8-2.62,17.71-3.93,26.56-2.46,16.6-4.55,33.25-7.18,49.83-1.35,8.53-2.72,17.07-3.36,25.69-.56,7.62-7.44,15.36-11.3,22.19-1.34,2.38,18,8.54,19.69,8.94,8,1.86,16.53,1.39,24.79,1.42q27.14.14,54.24-1.67c6-.4,13.4-1.54,18.72-4.53C130.78,245.12,131,245,131.11,244.91Z" transform="translate(0)" style="fill:#96d8e4"/><path d="M72.86,86.8s-10.19-2.75-11.6,20.25-3.76,81.19-7,97.15S46,251.45,46,251.45l31.21,1.09,35.66-2.82s-12.2-22.53-14.08-38.48,1.41-76-6.57-98.56S82.58,87.21,72.86,86.8Z" transform="translate(0)" style="fill:#dcf2f6"/><polygon points="94.18 113.69 116.93 126.05 130.63 121.36 165.71 82.79 156.39 74.37 119.17 103.47 89.86 90.68 94.18 113.69" style="fill:#96d8e4"/><path d="M87.07,68.58c1.55,4.63-.69,9.57-2.64,13.79-1.74,3.74-2.35,6.21,2.06,7.22,2.49.57,6.9,1.63,9.08-.28,1.65-1.44.72-5.89-.08-7.66-.61-1.35-2.24-2-2.81-3.4a4.76,4.76,0,0,1-.29-1.8,25,25,0,0,1,1-7.39,25.72,25.72,0,0,0,1.28-4.91c.21-2.45-1.53-5.31-2.44-7.56-1.69-4.18-7.58-9.8-12.52-6.51a7.16,7.16,0,0,0-2.32,3.25,5.88,5.88,0,0,0-.65,2.31c0,3.21,2.9,3.75,4.93,5.28A16.16,16.16,0,0,1,87.07,68.58Z" transform="translate(0)"/><path d="M77.69,86.65c4.28-1,7.62-4.6,9.23-8.69s1.7-8.63,1.25-13c-1.48-14.56-19.59-13.62-25.72-2.47C57.1,72.21,65.24,89.58,77.69,86.65Z" transform="translate(0)" style="fill:#aa6755"/><path d="M77.68,85.08l-.21,5a1,1,0,0,1-.2.68,1,1,0,0,1-.78.19l-4.06-.14a4.34,4.34,0,0,1-2-.37c-1.29-.69-1.56-2.44-1.35-3.89s.73-2.92.42-4.36c2.79,1.38,5.44-1.73,8.23-.35Z" transform="translate(0)" style="fill:#aa6755"/><path d="M71.84,39.71c-4.75,1.62-7.8,6.43-12.44,8.35-2.66,1.1-5.81,1.24-8,3.13-4.87,4.24-1,13.14-5,18.21-.83,1-2,1.85-2.78,2.9-1.8,2.27-2,5.36-2.2,8.25a9,9,0,0,0,.07,2c.62,6.68,10.31,6.26,14.16,5.83,4.23-.47,2.82-2.82,2.82-2.82l-.15-.19a8.07,8.07,0,0,1,2.83-7.32,10,10,0,0,0,2.29-2c1.25-1.91,0-4.45.24-6.72.74-9.17,16.12-7.2,20.46-13.73C89.52,47.61,80.82,36.66,71.84,39.71Z" transform="translate(0)"/><polygon points="434.83 90.96 429.48 87.97 428.1 82.75 426.84 82.48 426.45 84.01 424.05 80 420.48 78.74 416.35 81.63 414.82 86.6 418.12 90.4 423.78 92.35 430.92 96.76 434.83 90.96" style="fill:#eac1a4"/><polygon points="435.34 87.56 427.32 97.06 457.01 125.87 465.02 128.45 499.12 101.26 490 82.64 464.56 104.25 435.34 87.56" style="fill:#323237"/><polygon points="551.73 340.22 552.92 345.68 543.48 353.46 536.98 349.15 541.1 342.53 550.54 334.75 551.73 340.22" style="fill:#1a3151"/><polygon points="518.73 172.26 529.26 196.54 530.25 264.86 551.9 338.33 541.83 342.8 497.65 257.48 492.63 230.46 490.63 173.54 518.73 172.26"/><polygon points="467.75 177.7 466.92 249.29 480.41 341.6 490.79 341.6 497.34 256.43 511.53 171.26 467.75 177.7"/><polygon points="490.73 340.37 490.73 345.98 479.51 351.58 473.9 345.98 479.51 340.37 490.73 340.37" style="fill:#1a3151"/><path d="M488.18,80.76l27.55-1s16.49,14.46,25,52.05c8.67,38.27-1.61,93.37-1.61,93.37s-73.92-9.86-86.05-11.38l18.5-75.56Z" transform="translate(0)" style="fill:#323237"/><path d="M498.05,83.58l9.66-1a48.5,48.5,0,0,0-.52-7.71c2.69-.94,5.79-2.35,6.26-5.15a8,8,0,0,0-.16-2.67q-.93-5.47-1.87-10.94a9.92,9.92,0,0,0-1.13-3.64c-1.21-1.9-3.54-2.74-5.75-3.12-5.65-1-11.81.22-16.19,3.92a8.72,8.72,0,0,0-2.74,3.6c-.79,2.21-.2,4.66.39,6.93l1.65,6.3c.63,2.42,1.54,5.17,3.86,6.08,1.24.48,2.7.34,3.82,1C497.3,78.54,497,81.47,498.05,83.58Z" transform="translate(0)" style="fill:#eac1a4"/><path d="M466.61,47.11a31.15,31.15,0,0,1,.79-7.31c.86-3.92,5.48-5.68,9.49-6,8.64-.6,17-4.51,25.42-1.49,4.83,1.73,11.31,2.14,15.68,4.58a13,13,0,0,1,4.41,4.36,19.43,19.43,0,0,1,0,20.54,27.1,27.1,0,0,1-3,3.81c-2.28,2.47-5,5.51-8.14,6.43-.07-2.81,2.49-11.64.34-13.94-3.41-3.65-11.13-2.39-15.37-1.5-4.62,1-8.75,4.24-13.33,4.94-3.3.49-7.51-1.13-10.31-2.84C468.19,56.06,466.73,51.63,466.61,47.11Z" transform="translate(0)" style="fill:#39251c"/><path d="M495.78,84.17,466.81,200l-2.38,15.2,36.1,4.75s-1.43-55.49-.95-62.89,5.82-23.4,6.64-40.64c.48-10,3.65-27.88,1.43-33.72Z" transform="translate(0)" style="fill:#1e375a"/><path d="M249.53,281.6a11.11,11.11,0,0,0-3.33,1.18A64.51,64.51,0,0,1,236,287.59c-5,1.72-10.23,2-15.81-1-11.36-6.17-15.56-21.46-9-32.59,8.08-13.73,22.77-12,34.65-4.63A8.58,8.58,0,0,0,258.75,244V192.34h0V190.9h-.24v1.16H206.13A9.31,9.31,0,0,1,201,178.8c3.07-5.36,5.87-10.68,6.15-16.26a17.93,17.93,0,0,0-2.31-8.94c-6.17-11.37-21.45-15.58-32.59-9-7.06,4.15-10,10.05-10.27,16.41,0,5.82,2.19,12,5.65,17.55a8.47,8.47,0,0,1,1.27,5.37,8.62,8.62,0,0,1-6.48,8.17H116.82c-.15.23-.31.45-.45.69-3.94,6.42-3.12,11.2,2.74,15.24,3.76,2.59,7.73,4.82,11,8.18,5,5.13,5.34,8.15,1.51,14.5-4.32,7.14-4.29,7.43,2.34,12.5,1.78,1.36,3.66,2.39,1.16,5-3.68,3.79-2.36,7.49.81,10.26,4.45,3.87,5.11,8.85,4.28,14.41-.73,4.85-1.8,9.64-2.71,14.46-2.45,13,1,19.05,12.71,22.47,12.27,3.56,24.48.47,36.71-.71,8.2-.79,16.27-3.64,24.66-1.56,5.45,1.34,8.45,4.67,9.15,10.77,1,8.9,3.67,17.4,5.18,26.15,1.24,7.14,4.34,9.37,10.77,9.08,5.39-.24,13.09-.36,22-.39V288.14A8.61,8.61,0,0,0,249.53,281.6Z" transform="translate(0)" style="fill:#0a69af"/><path d="M303.1,69.72a8.57,8.57,0,0,0,13.75,2.17c9.84-10,23.73-15,34.78-3.54,9,9.31,8.42,25.15-1.2,33.8-4.72,4.24-9.82,5.19-15.13,4.69a65.83,65.83,0,0,1-11-2.32,11.14,11.14,0,0,0-3.51-.38,8.6,8.6,0,0,0-7.44,8.5l7.13,29.9h0l4.75,19.9h0l.17.72.17.67.23-.05,51.57-12.31a8.58,8.58,0,0,1,7.25,10.93c-2.7,9.23-4.84,18.2,2.26,26.11,8.64,9.62,24.48,10.17,33.8,1.21,11.48-11,6.43-24.94-3.53-34.78a8.58,8.58,0,0,1,1.38-13.3l31.53-7.53a108.78,108.78,0,0,0-.34-33.79c-5.45-27.6-16.16-48.94-33.08-64.44-34.72-31.8-74.77-40.5-117.3-33.74a102,102,0,0,0-11.75,2.61l8.23,34.46Z" transform="translate(0)" style="fill:#0a69af"/><path d="M355.93,353.48c7.68-.42,4-5.21.42-12.64-28.72-60.36,5.48-109,11.08-115.81a122.18,122.18,0,0,0,19.32-32.69H354.33A8.57,8.57,0,0,0,349.9,205c7.4,11.89,9.09,26.58-4.65,34.65-11.14,6.55-26.42,2.34-32.59-9-5.07-9.34-.91-17.57,3.87-25.92A8.58,8.58,0,0,0,312,192.34H259V242a8.93,8.93,0,0,1-.24,2v.22a8.58,8.58,0,0,1-12.85,5.18c-11.88-7.41-26.58-9.09-34.65,4.64-6.55,11.14-1.7,26.17,9.66,32.34a17.87,17.87,0,0,0,15.13,1.2,59.73,59.73,0,0,0,10.11-4.9,8.7,8.7,0,0,1,3.38-1.09,7.7,7.7,0,0,1,9.21,6.39v.15a8.69,8.69,0,0,1,.25,2v62.93C293.59,352.94,346.5,354,355.93,353.48Z" transform="translate(0)" style="fill:#1e375a"/><path d="M306.28,105.52c-8.08-13.73-22.77-12-34.65-4.63a8.56,8.56,0,0,1-12.87-5.31,8.43,8.43,0,0,1-.25-2V28.79c-17.7.8-34.92,6.13-51.45,14.23-4.44,2.18-8.81,4.56-13.14,7-30.39,17.21-47.3,43.64-45.86,82.35.8,21.73-8.87,37.54-23.16,50.83a56.23,56.23,0,0,0-7.27,7.68q-.42.57-.81,1.17h45.55a8.62,8.62,0,0,0,6.48-8.17,8.44,8.44,0,0,0-1.3-4.68c-3.6-5.77-5.84-12.21-5.62-18.24.23-6.36,3.21-12.26,10.27-16.41,11.14-6.54,26.42-2.33,32.59,9a17.93,17.93,0,0,1,2.31,8.94c-.06,5.85-3,11.38-6.17,17a8.52,8.52,0,0,0-1.11,3.58,8.61,8.61,0,0,0,6.31,9h52.38V141.71a8.69,8.69,0,0,1,.25-2,8.6,8.6,0,0,1,9.22-6.54,8.71,8.71,0,0,1,3.37,1.09,59.73,59.73,0,0,0,10.11,4.9c5.05,1.72,10.23,2,15.81-1C308.63,131.94,312.84,116.65,306.28,105.52Z" transform="translate(0)" style="fill:#dcdce1"/><polygon points="520.08 101.8 484.82 135.09 432.51 119.5 428.77 131.27 486.26 157.57 501.39 157.57 533.35 130.37 520.08 101.8" style="fill:#323237"/><polygon points="429.11 130.21 420.01 130.37 414.45 122.53 428.58 114.67 432.51 119.5 429.11 130.21" style="fill:#eac1a4"/><polygon points="136.52 150.12 136.35 155.43 145.72 158.83 151.11 154.75 151.12 148.57 145.91 148.28 145.74 146.92 144.04 145.82 136.52 150.12" style="fill:#aa6755"/><path d="M58.36,110.42,97,143.31l41,.8s-1.66,17.62-1.65,16.16-45.43,4.39-45.43,4.39L50.6,136.17Z" transform="translate(0)" style="fill:#96d8e4"/></svg>